<?xml version="1.0" encoding="UTF-8" standalone="no"?>
<svg xmlns:dc="http://purl.org/dc/elements/1.1/" xmlns:cc="http://creativecommons.org/ns#" xmlns:rdf="http://www.w3.org/1999/02/22-rdf-syntax-ns#" xmlns:svg="http://www.w3.org/2000/svg" xmlns="http://www.w3.org/2000/svg" id="svg634" version="1.1" viewBox="0 0 113.24166 113.24167" height="428" width="428">
    <defs id="defs628" />
    <metadata id="metadata631">
        <rdf:RDF>
            <cc:Work rdf:about="">
                <dc:format>image/svg+xml</dc:format>
                <dc:type rdf:resource="http://purl.org/dc/dcmitype/StillImage" />
                <dc:title></dc:title>
            </cc:Work>
        </rdf:RDF>
    </metadata>
    <g transform="translate(0,-1.5875)" id="layer7">
        <path id="path701" d="M 27.36548,101.45759 C 25.90851,100.54067 -0.01915947,74.321829 -0.01484147,73.769779 c 0.010873,-1.39018 -1.89765753,-1.3013 31.00862647,-1.44402 24.168602,-0.10482 30.626567,-0.2029 31.098256,-0.47233 1.448641,-0.82745 1.166828,-1.18615 -8.73125,-11.11328 -5.129609,-5.14466 -9.64644,-9.52325 -10.037404,-9.7302 -0.795338,-0.421 -1.390513,-0.29314 -1.71318,0.36804 -0.118787,0.24341 -0.27682,3.50006 -0.351187,7.23701 -0.150251,7.55041 -0.14832,7.54232 -2.116891,8.88212 -0.772573,0.5258 -1.20536,0.59531 -3.706857,0.59531 -2.498244,0 -2.938159,-0.0704 -3.731186,-0.59745 -0.494461,-0.3286 -1.166913,-1.12773 -1.494335,-1.77585 l -0.595313,-1.17841 0.0039,-25.54238 c 0.0031,-20.012522 0.0761,-25.685585 0.337362,-26.203835 0.855446,-1.696921 -1.190606,-3.6255618 42.430317,39.995375 43.123053,43.12305 41.818093,41.74624 40.324993,42.54532 -0.32826,0.17568 -4.29826,0.2739 -11.07108,0.2739 -13.819143,0 -13.005449,0.25178 -19.423727,-6.01036 -4.296685,-4.19215 -5.756918,-5.10916 -8.945507,-5.61764 -2.156015,-0.34382 -38.591186,-0.36649 -40.063897,-0.0249 -1.18414,0.27464 -2.126162,0.9096 -2.914544,1.96452 -0.511606,0.68458 -0.553738,1.18243 -0.677807,8.00916 -0.123885,6.816651 -0.164928,7.303031 -0.645882,7.654221 -0.647853,0.47307 -0.650764,0.47284 -1.603076,-0.12649 z" style="fill:#004575;stroke-width:0.26458332" />
    </g>
    <g transform="translate(0,-183.75832)" id="layer1" />
</svg>
